<?xml version="1.0" encoding="UTF-8" standalone="no"?>
<!-- Created with Inkscape (http://www.inkscape.org/) -->

<svg
   xmlns:dc="http://purl.org/dc/elements/1.1/"
   xmlns:cc="http://creativecommons.org/ns#"
   xmlns:rdf="http://www.w3.org/1999/02/22-rdf-syntax-ns#"
   xmlns:svg="http://www.w3.org/2000/svg"
   xmlns="http://www.w3.org/2000/svg"
   xmlns:xlink="http://www.w3.org/1999/xlink"
   xmlns:sodipodi="http://sodipodi.sourceforge.net/DTD/sodipodi-0.dtd"
   xmlns:inkscape="http://www.inkscape.org/namespaces/inkscape"
   width="640px"
   height="480px"
   id="svg2985"
   version="1.1"
   inkscape:version="0.48.4 r9939"
   sodipodi:docname="New document 2">
  <defs
     id="defs2987">
    <linearGradient
       id="linearGradient3767">
      <stop
         style="stop-color:#9f7e60;stop-opacity:1;"
         offset="0"
         id="stop3769" />
      <stop
         style="stop-color:#37312a;stop-opacity:1;"
         offset="1"
         id="stop3771" />
    </linearGradient>
    <radialGradient
       inkscape:collect="always"
       xlink:href="#linearGradient3767"
       id="radialGradient3775"
       cx="275"
       cy="255"
       fx="275"
       fy="255"
       r="205.5"
       gradientUnits="userSpaceOnUse" />
  </defs>
  <sodipodi:namedview
     id="base"
     pagecolor="#ffffff"
     bordercolor="#666666"
     borderopacity="1.0"
     inkscape:pageopacity="0.0"
     inkscape:pageshadow="2"
     inkscape:zoom="1.5494505"
     inkscape:cx="257.1522"
     inkscape:cy="199.99058"
     inkscape:current-layer="layer1"
     inkscape:document-units="px"
     showgrid="true"
     inkscape:window-width="1855"
     inkscape:window-height="1056"
     inkscape:window-x="2945"
     inkscape:window-y="564"
     inkscape:window-maximized="1">
    <inkscape:grid
       type="xygrid"
       id="grid2993" />
  </sodipodi:namedview>
  <metadata
     id="metadata2990">
    <rdf:RDF>
      <cc:Work
         rdf:about="">
        <dc:format>image/svg+xml</dc:format>
        <dc:type
           rdf:resource="http://purl.org/dc/dcmitype/StillImage" />
        <dc:title></dc:title>
      </cc:Work>
    </rdf:RDF>
  </metadata>
  <g
     id="layer1"
     inkscape:label="Layer 1"
     inkscape:groupmode="layer">
    <g
       id="g3890">
      <rect
         ry="3"
         rx="3"
         y="50"
         x="70"
         height="410"
         width="410"
         id="rect2997"
         style="fill:url(#radialGradient3775);fill-opacity:1;fill-rule:evenodd;stroke:#000000;stroke-width:3.4000001;stroke-linecap:round;stroke-linejoin:miter;stroke-miterlimit:4;stroke-opacity:1;stroke-dasharray:none" />
      <path
         transform="translate(238.79433,-4.5177306)"
         d="m 30,155 a 45,85 0 1 1 -90,0 45,85 0 1 1 90,0 z"
         sodipodi:ry="85"
         sodipodi:rx="45"
         sodipodi:cy="155"
         sodipodi:cx="-15"
         id="path3785"
         style="fill:#ffffff;fill-opacity:1;stroke:#000000;stroke-width:3.4000001;stroke-linecap:round;stroke-miterlimit:4;stroke-opacity:1;stroke-dasharray:none"
         sodipodi:type="arc" />
      <path
         transform="matrix(0.64862096,0,0,0.61276595,232.8818,87.148938)"
         d="m 30,155 a 45,85 0 1 1 -90,0 45,85 0 1 1 90,0 z"
         sodipodi:ry="85"
         sodipodi:rx="45"
         sodipodi:cy="155"
         sodipodi:cx="-15"
         id="path3785-5"
         style="fill:#00ffff;fill-opacity:1;stroke:none"
         sodipodi:type="arc" />
      <path
         transform="translate(-1.9361702,0)"
         d="m 240,190 a 15,20 0 1 1 -30,0 15,20 0 1 1 30,0 z"
         sodipodi:ry="20"
         sodipodi:rx="15"
         sodipodi:cy="190"
         sodipodi:cx="225"
         id="path3787"
         style="fill:#000000;fill-opacity:1;stroke:#000000;stroke-width:3.40000010000000019;stroke-linecap:round;stroke-miterlimit:4;stroke-opacity:1;stroke-dasharray:none"
         sodipodi:type="arc" />
      <path
         transform="matrix(0.53692837,0,0,0.52361826,104.83651,98.25721)"
         d="m 240,190 a 15,20 0 1 1 -30,0 15,20 0 1 1 30,0 z"
         sodipodi:ry="20"
         sodipodi:rx="15"
         sodipodi:cy="190"
         sodipodi:cx="225"
         id="path3787-8"
         style="fill:#ffffff;fill-opacity:1;stroke:#000000;stroke-width:3.4000001;stroke-linecap:round;stroke-miterlimit:4;stroke-opacity:1;stroke-dasharray:none"
         sodipodi:type="arc" />
      <path
         transform="translate(316.88653,-4.5035453)"
         d="m 30,155 a 45,85 0 1 1 -90,0 45,85 0 1 1 90,0 z"
         sodipodi:ry="85"
         sodipodi:rx="45"
         sodipodi:cy="155"
         sodipodi:cx="-15"
         id="path3785-1"
         style="fill:#ffffff;fill-opacity:1;stroke:#000000;stroke-width:3.4000001;stroke-linecap:round;stroke-miterlimit:4;stroke-opacity:1;stroke-dasharray:none"
         sodipodi:type="arc" />
      <path
         transform="matrix(0.64862096,0,0,0.61276595,310.974,87.163124)"
         d="m 30,155 a 45,85 0 1 1 -90,0 45,85 0 1 1 90,0 z"
         sodipodi:ry="85"
         sodipodi:rx="45"
         sodipodi:cy="155"
         sodipodi:cx="-15"
         id="path3785-5-6"
         style="fill:#00ffff;fill-opacity:1;stroke:none"
         sodipodi:type="arc" />
      <path
         transform="translate(76.156029,0.01418566)"
         d="m 240,190 a 15,20 0 1 1 -30,0 15,20 0 1 1 30,0 z"
         sodipodi:ry="20"
         sodipodi:rx="15"
         sodipodi:cy="190"
         sodipodi:cx="225"
         id="path3787-0"
         style="fill:#000000;fill-opacity:1;stroke:#000000;stroke-width:3.4000001;stroke-linecap:round;stroke-miterlimit:4;stroke-opacity:1;stroke-dasharray:none"
         sodipodi:type="arc" />
      <path
         transform="matrix(0.53692837,0,0,0.52361826,182.92871,98.271396)"
         d="m 240,190 a 15,20 0 1 1 -30,0 15,20 0 1 1 30,0 z"
         sodipodi:ry="20"
         sodipodi:rx="15"
         sodipodi:cy="190"
         sodipodi:cx="225"
         id="path3787-8-9"
         style="fill:#ffffff;fill-opacity:1;stroke:#000000;stroke-width:3.4000001;stroke-linecap:round;stroke-miterlimit:4;stroke-opacity:1;stroke-dasharray:none"
         sodipodi:type="arc" />
    </g>
  </g>
</svg>
